<mxfile host="65bd71144e">
    <diagram id="WM1ELAfN_Ny97ynVXezr" name="Diagrams">
        <mxGraphModel dx="799" dy="458" grid="1" gridSize="10" guides="1" tooltips="1" connect="1" arrows="1" fold="1" page="1" pageScale="1" pageWidth="827" pageHeight="1169" math="0" shadow="0">
            <root>
                <mxCell id="0"/>
                <mxCell id="1" parent="0"/>
                <mxCell id="2" value="IN" style="endArrow=classic;html=1;rounded=0;entryX=0;entryY=0.5;entryDx=0;entryDy=0;" parent="1" edge="1">
                    <mxGeometry width="50" height="50" relative="1" as="geometry">
                        <mxPoint x="93" y="201" as="sourcePoint"/>
                        <mxPoint x="203" y="201" as="targetPoint"/>
                    </mxGeometry>
                </mxCell>
                <mxCell id="3" value="Usługa 1" style="shape=module;align=left;spacingLeft=20;align=center;verticalAlign=top;whiteSpace=wrap;html=1;" parent="1" vertex="1">
                    <mxGeometry x="213" y="142" width="80" height="50" as="geometry"/>
                </mxCell>
                <mxCell id="4" value="Usługa 2" style="shape=module;align=left;spacingLeft=20;align=center;verticalAlign=top;whiteSpace=wrap;html=1;" parent="1" vertex="1">
                    <mxGeometry x="213" y="205" width="80" height="50" as="geometry"/>
                </mxCell>
                <mxCell id="5" value="System" style="shape=umlFrame;whiteSpace=wrap;html=1;pointerEvents=0;" parent="1" vertex="1">
                    <mxGeometry x="203" y="100" width="300" height="230" as="geometry"/>
                </mxCell>
                <mxCell id="6" value="Storage 2" style="shape=cylinder3;whiteSpace=wrap;html=1;boundedLbl=1;backgroundOutline=1;size=15;" parent="1" vertex="1">
                    <mxGeometry x="433" y="223" width="60" height="80" as="geometry"/>
                </mxCell>
                <mxCell id="7" value="Telemetry" style="shape=module;align=left;spacingLeft=20;align=center;verticalAlign=top;whiteSpace=wrap;html=1;" parent="1" vertex="1">
                    <mxGeometry x="313" y="146" width="100" height="50" as="geometry"/>
                </mxCell>
                <mxCell id="8" value="Security" style="shape=module;align=left;spacingLeft=20;align=center;verticalAlign=top;whiteSpace=wrap;html=1;" parent="1" vertex="1">
                    <mxGeometry x="313" y="206" width="100" height="50" as="geometry"/>
                </mxCell>
                <mxCell id="9" value="Storage 1" style="shape=cylinder3;whiteSpace=wrap;html=1;boundedLbl=1;backgroundOutline=1;size=15;" parent="1" vertex="1">
                    <mxGeometry x="433" y="153" width="60" height="80" as="geometry"/>
                </mxCell>
                <mxCell id="10" value="" style="endArrow=none;dashed=1;html=1;dashPattern=1 3;strokeWidth=2;rounded=0;exitX=0.33;exitY=1;exitDx=0;exitDy=0;exitPerimeter=0;entryX=0.333;entryY=0.005;entryDx=0;entryDy=0;entryPerimeter=0;" parent="1" source="5" target="5" edge="1">
                    <mxGeometry width="50" height="50" relative="1" as="geometry">
                        <mxPoint x="363" y="340" as="sourcePoint"/>
                        <mxPoint x="413" y="290" as="targetPoint"/>
                    </mxGeometry>
                </mxCell>
                <mxCell id="11" value="" style="endArrow=none;dashed=1;html=1;dashPattern=1 3;strokeWidth=2;rounded=0;exitX=0.72;exitY=0.987;exitDx=0;exitDy=0;exitPerimeter=0;entryX=0.333;entryY=0.005;entryDx=0;entryDy=0;entryPerimeter=0;" parent="1" source="5" edge="1">
                    <mxGeometry width="50" height="50" relative="1" as="geometry">
                        <mxPoint x="420" y="300" as="sourcePoint"/>
                        <mxPoint x="421" y="101" as="targetPoint"/>
                    </mxGeometry>
                </mxCell>
                <mxCell id="12" value="OUT" style="endArrow=classic;html=1;rounded=0;exitX=0.993;exitY=0.439;exitDx=0;exitDy=0;exitPerimeter=0;" parent="1" source="5" edge="1">
                    <mxGeometry width="50" height="50" relative="1" as="geometry">
                        <mxPoint x="103" y="209" as="sourcePoint"/>
                        <mxPoint x="633" y="200" as="targetPoint"/>
                    </mxGeometry>
                </mxCell>
                <mxCell id="13" value="RULES" style="endArrow=classic;html=1;rounded=0;entryX=0.527;entryY=-0.009;entryDx=0;entryDy=0;entryPerimeter=0;" parent="1" target="5" edge="1">
                    <mxGeometry width="50" height="50" relative="1" as="geometry">
                        <mxPoint x="361" y="40" as="sourcePoint"/>
                        <mxPoint x="413" y="290" as="targetPoint"/>
                    </mxGeometry>
                </mxCell>
                <mxCell id="14" value="RESOURCES" style="endArrow=classic;html=1;rounded=0;entryX=0.633;entryY=1;entryDx=0;entryDy=0;entryPerimeter=0;" parent="1" edge="1">
                    <mxGeometry width="50" height="50" relative="1" as="geometry">
                        <mxPoint x="363" y="400" as="sourcePoint"/>
                        <mxPoint x="362.9000000000001" y="330" as="targetPoint"/>
                    </mxGeometry>
                </mxCell>
                <mxCell id="15" value="Usługa 2" style="shape=module;align=left;spacingLeft=20;align=center;verticalAlign=top;whiteSpace=wrap;html=1;" parent="1" vertex="1">
                    <mxGeometry x="213" y="267" width="80" height="50" as="geometry"/>
                </mxCell>
                <mxCell id="16" value="I" style="text;html=1;align=center;verticalAlign=middle;whiteSpace=wrap;rounded=0;fontStyle=1" parent="1" vertex="1">
                    <mxGeometry x="283" y="100" width="20" height="20" as="geometry"/>
                </mxCell>
                <mxCell id="17" value="II" style="text;html=1;align=center;verticalAlign=middle;whiteSpace=wrap;rounded=0;fontStyle=1" parent="1" vertex="1">
                    <mxGeometry x="393" y="100" width="20" height="20" as="geometry"/>
                </mxCell>
                <mxCell id="18" value="III" style="text;html=1;align=center;verticalAlign=middle;whiteSpace=wrap;rounded=0;fontStyle=1" parent="1" vertex="1">
                    <mxGeometry x="482" y="100" width="20" height="20" as="geometry"/>
                </mxCell>
                <mxCell id="19" value="&lt;h1 style=&quot;margin-top: 0px;&quot;&gt;SYSTEM&lt;/h1&gt;&lt;p&gt;I - bezpośrednio wykonuje funkcyje&lt;/p&gt;&lt;p&gt;II - wspiera (managment &amp;amp; control)&lt;/p&gt;&lt;p&gt;III - danę&lt;/p&gt;" style="text;html=1;whiteSpace=wrap;overflow=hidden;rounded=0;" parent="1" vertex="1">
                    <mxGeometry x="524" y="45" width="220" height="120" as="geometry"/>
                </mxCell>
                <mxCell id="20" value="Business&lt;div&gt;Logic&lt;/div&gt;" style="shape=module;align=left;spacingLeft=20;align=center;verticalAlign=top;whiteSpace=wrap;html=1;" parent="1" vertex="1">
                    <mxGeometry x="313" y="265" width="100" height="50" as="geometry"/>
                </mxCell>
                <mxCell id="21" value="" style="group" parent="1" vertex="1" connectable="0">
                    <mxGeometry x="550" y="420" width="150" height="236" as="geometry"/>
                </mxCell>
                <mxCell id="22" value="" style="shape=umlLifeline;perimeter=lifelinePerimeter;whiteSpace=wrap;html=1;container=1;dropTarget=0;collapsible=0;recursiveResize=0;outlineConnect=0;portConstraint=eastwest;newEdgeStyle={&quot;curved&quot;:0,&quot;rounded&quot;:0};participant=umlActor;" parent="21" vertex="1">
                    <mxGeometry y="23" width="20" height="213" as="geometry"/>
                </mxCell>
                <mxCell id="23" value="System" style="shape=umlLifeline;perimeter=lifelinePerimeter;whiteSpace=wrap;html=1;container=1;dropTarget=0;collapsible=0;recursiveResize=0;outlineConnect=0;portConstraint=eastwest;newEdgeStyle={&quot;curved&quot;:0,&quot;rounded&quot;:0};" parent="21" vertex="1">
                    <mxGeometry x="50" y="26" width="100" height="210" as="geometry"/>
                </mxCell>
                <mxCell id="24" value="" style="html=1;points=[[0,0,0,0,5],[0,1,0,0,-5],[1,0,0,0,5],[1,1,0,0,-5]];perimeter=orthogonalPerimeter;outlineConnect=0;targetShapes=umlLifeline;portConstraint=eastwest;newEdgeStyle={&quot;curved&quot;:0,&quot;rounded&quot;:0};" parent="23" vertex="1">
                    <mxGeometry x="45" y="86" width="10" height="80" as="geometry"/>
                </mxCell>
                <mxCell id="25" value="dispatch" style="html=1;verticalAlign=bottom;endArrow=block;curved=0;rounded=0;entryX=0;entryY=0;entryDx=0;entryDy=5;" parent="21" target="24" edge="1">
                    <mxGeometry relative="1" as="geometry">
                        <mxPoint x="9.5" y="117" as="sourcePoint"/>
                    </mxGeometry>
                </mxCell>
                <mxCell id="26" value="return" style="html=1;verticalAlign=bottom;endArrow=open;dashed=1;endSize=8;curved=0;rounded=0;exitX=0;exitY=1;exitDx=0;exitDy=-5;" parent="21" source="24" edge="1">
                    <mxGeometry relative="1" as="geometry">
                        <mxPoint x="9.5" y="187" as="targetPoint"/>
                    </mxGeometry>
                </mxCell>
                <mxCell id="27" value="Success Path" style="text;align=center;fontStyle=1;verticalAlign=middle;spacingLeft=3;spacingRight=3;strokeColor=none;rotatable=0;points=[[0,0.5],[1,0.5]];portConstraint=eastwest;html=1;" parent="21" vertex="1">
                    <mxGeometry x="39" y="-1" width="80" height="26" as="geometry"/>
                </mxCell>
                <mxCell id="28" value="" style="group" parent="1" vertex="1" connectable="0">
                    <mxGeometry x="20" y="461" width="240" height="208" as="geometry"/>
                </mxCell>
                <mxCell id="29" value="Role 1&lt;div&gt;&lt;br&gt;&lt;/div&gt;" style="shape=umlActor;verticalLabelPosition=bottom;verticalAlign=top;html=1;" parent="28" vertex="1">
                    <mxGeometry x="96" width="28.8" height="60" as="geometry"/>
                </mxCell>
                <mxCell id="30" value="Role 2" style="shape=umlActor;verticalLabelPosition=bottom;verticalAlign=top;html=1;" parent="28" vertex="1">
                    <mxGeometry x="163.20000000000002" y="40" width="28.8" height="60" as="geometry"/>
                </mxCell>
                <mxCell id="31" value="Role 3" style="shape=umlActor;verticalLabelPosition=bottom;verticalAlign=top;html=1;" parent="28" vertex="1">
                    <mxGeometry x="211.20000000000002" y="89" width="28.8" height="60" as="geometry"/>
                </mxCell>
                <mxCell id="32" value="Use 1" style="ellipse;whiteSpace=wrap;html=1;" parent="28" vertex="1">
                    <mxGeometry y="120" width="96" height="49" as="geometry"/>
                </mxCell>
                <mxCell id="33" value="Use 2" style="ellipse;whiteSpace=wrap;html=1;" parent="28" vertex="1">
                    <mxGeometry x="76.8" y="159" width="96" height="49" as="geometry"/>
                </mxCell>
                <mxCell id="34" value="" style="endArrow=classic;html=1;rounded=0;" parent="28" source="29" edge="1">
                    <mxGeometry width="50" height="50" relative="1" as="geometry">
                        <mxPoint x="240" y="139" as="sourcePoint"/>
                        <mxPoint x="48" y="119" as="targetPoint"/>
                    </mxGeometry>
                </mxCell>
                <mxCell id="35" value="" style="endArrow=classic;html=1;rounded=0;entryX=1;entryY=0;entryDx=0;entryDy=0;" parent="28" source="30" target="32" edge="1">
                    <mxGeometry width="50" height="50" relative="1" as="geometry">
                        <mxPoint x="115.2" y="66" as="sourcePoint"/>
                        <mxPoint x="57.6" y="129" as="targetPoint"/>
                    </mxGeometry>
                </mxCell>
                <mxCell id="36" value="" style="endArrow=classic;html=1;rounded=0;entryX=1;entryY=0;entryDx=0;entryDy=0;" parent="28" source="31" target="33" edge="1">
                    <mxGeometry width="50" height="50" relative="1" as="geometry">
                        <mxPoint x="153.6" y="91" as="sourcePoint"/>
                        <mxPoint x="92.16" y="137" as="targetPoint"/>
                    </mxGeometry>
                </mxCell>
                <mxCell id="37" value="" style="endArrow=classic;html=1;rounded=0;entryX=1.01;entryY=0.388;entryDx=0;entryDy=0;entryPerimeter=0;" parent="28" source="31" target="32" edge="1">
                    <mxGeometry width="50" height="50" relative="1" as="geometry">
                        <mxPoint x="220.8" y="139" as="sourcePoint"/>
                        <mxPoint x="168.96" y="176" as="targetPoint"/>
                    </mxGeometry>
                </mxCell>
                <mxCell id="38" value="Uses" style="text;align=center;fontStyle=1;verticalAlign=middle;spacingLeft=3;spacingRight=3;strokeColor=none;rotatable=0;points=[[0,0.5],[1,0.5]];portConstraint=eastwest;html=1;" parent="28" vertex="1">
                    <mxGeometry x="19.2" y="14" width="76.8" height="26" as="geometry"/>
                </mxCell>
                <mxCell id="44" style="edgeStyle=none;html=1;" parent="1" source="43" edge="1">
                    <mxGeometry relative="1" as="geometry">
                        <mxPoint x="510" y="515" as="targetPoint"/>
                    </mxGeometry>
                </mxCell>
                <mxCell id="45" style="edgeStyle=none;html=1;exitX=0.5;exitY=0;exitDx=0;exitDy=0;" parent="1" source="43" edge="1">
                    <mxGeometry relative="1" as="geometry">
                        <mxPoint x="397" y="440" as="targetPoint"/>
                    </mxGeometry>
                </mxCell>
                <mxCell id="46" style="edgeStyle=none;html=1;" parent="1" source="43" edge="1">
                    <mxGeometry relative="1" as="geometry">
                        <mxPoint x="270" y="550" as="targetPoint"/>
                    </mxGeometry>
                </mxCell>
                <mxCell id="43" value="&lt;b&gt;&lt;font style=&quot;font-size: 13px;&quot;&gt;Three Main Diagramms:&lt;/font&gt;&lt;/b&gt;&lt;div style=&quot;text-align: left;&quot;&gt;- Use Cases,&lt;/div&gt;&lt;div style=&quot;text-align: left;&quot;&gt;- Components&lt;/div&gt;&lt;div style=&quot;text-align: left;&quot;&gt;- Sequence Diagramm&lt;/div&gt;" style="rounded=0;whiteSpace=wrap;html=1;" parent="1" vertex="1">
                    <mxGeometry x="312" y="470" width="170" height="90" as="geometry"/>
                </mxCell>
            </root>
        </mxGraphModel>
    </diagram>
</mxfile>